<?xml version="1.0" encoding="utf-8"?>
<svg version="1.1" 
     id="Layer_1" 
	 xmlns="http://www.w3.org/2000/svg" 
	 x="0px" y="0px"
	 viewBox="0 0 296.7 283.5">
<g>
	<path fill="#ffffff" d="M267.6,256L158.3,2.2l-29.5,0L27.4,256L0,256v27.5h98.3V256l-18.7,0l18.7-55.4h77l22.9,55.4h-29.5v27.5h128V256L267.6,256z
		 M106.2,173.6l27.6-77.3l30,77.3H106.2z"/>
	<path fill="#ffffff" d="M45.7,50.2c2.6,0,5.1-0.4,7.5-1.1c-0.3,2.8-1,5.7-3.5,9.2c-2.4,3.5-4.1,5.3-8.5,8.9c-3.6,3-9.7,5.2-14.4,6.5l-0.2,16.9
		c7.6-0.5,13.4-2.2,20.3-5.1c6.9-2.9,12.8-6.7,18-11.5c5.1-4.8,9.2-10.4,12.3-16.8c3.1-6.4,4.6-13.4,4.6-20.9c0-5-0.8-9.8-2.5-14.2
		c-1.7-4.4-3.9-8.3-6.7-11.6c-2.8-3.3-6.2-5.9-10-7.8c-3-1.5-6.2-2.4-9.6-2.7C52,0.1,51.1,0,50.2,0c0,0,0,0,0,0c0,0,0,0,0,0
		c0,0-0.1,0-0.1,0c-1.3,0-2.7,0.1-4,0.3c-0.7,0.1-1.4,0.2-2.1,0.4c-1,0.2-2,0.5-3,0.8c-0.2,0.1-0.4,0.1-0.6,0.2
		c-0.1,0-0.1,0.1-0.2,0.1C29.7,5.6,20.6,14.6,20.6,25.1C20.6,39,31.8,50.2,45.7,50.2z"/>
</g>
</svg>
